<svg xmlns="http://www.w3.org/2000/svg" xmlns:xlink="http://www.w3.org/1999/xlink" width="152.052" height="152.052" viewBox="0 0 152.052 152.052"><defs><style>.a{stroke:rgba(255,255,255,0.1);fill:url(#a);}.b{fill:none;stroke:#b19eff;stroke-width:2px;stroke-dasharray:3;}.c,.d{fill:#fff;}.d{font-size:12px;font-family:Sansation Bold, Sansation;}</style><linearGradient id="a" x1="0.5" x2="0.5" y2="1" gradientUnits="objectBoundingBox"><stop offset="0" stop-color="red"/><stop offset="1" stop-color="#2b1097"/></linearGradient></defs><g transform="translate(-1669.265 -1739.919)"><path class="a" d="M93.789,29.453a8.262,8.262,0,0,1,6.323,0L143.151,47.28a8.262,8.262,0,0,1,4.471,4.471l17.827,43.039a8.262,8.262,0,0,1,0,6.323l-17.827,43.039a8.263,8.263,0,0,1-4.471,4.471l-43.039,17.827a8.262,8.262,0,0,1-6.323,0L50.751,148.622a8.262,8.262,0,0,1-4.471-4.471L28.453,101.113a8.262,8.262,0,0,1,0-6.323L46.28,51.751a8.261,8.261,0,0,1,4.471-4.471Z" transform="translate(1648.34 1718.323)"/><path class="b" d="M91.052,19.375a7.244,7.244,0,0,1,5.544,0l47.911,19.845a7.243,7.243,0,0,1,3.92,3.921l19.846,47.911a7.247,7.247,0,0,1,0,5.544l-19.846,47.911a7.241,7.241,0,0,1-3.92,3.92L96.6,168.273a7.247,7.247,0,0,1-5.544,0L43.141,148.427a7.243,7.243,0,0,1-3.921-3.92L19.375,96.6a7.244,7.244,0,0,1,0-5.544L39.221,43.141a7.244,7.244,0,0,1,3.921-3.921Z" transform="translate(1651.467 1722.121)"/><path class="c" d="M9.856,6.1V33.563a1.2,1.2,0,0,1-1.194,1.194h0a1.2,1.2,0,0,1-1.194-1.194V8.833H6.1a2.726,2.726,0,0,0-2.729,2.729v24.56A2.726,2.726,0,0,0,6.1,38.85H36.215a2.637,2.637,0,0,0,2.635-2.635V6.1a2.726,2.726,0,0,0-2.729-2.729l-23.707.171A2.444,2.444,0,0,0,9.856,6.1Zm5.628,2.729h7.163a1.2,1.2,0,0,1,1.194,1.194h0a1.2,1.2,0,0,1-1.194,1.194H15.484a1.2,1.2,0,0,1-1.194-1.194h0A1.2,1.2,0,0,1,15.484,8.833Zm0,13.644H28.105A1.2,1.2,0,0,1,29.3,23.671h0a1.2,1.2,0,0,1-1.194,1.194H15.484a1.2,1.2,0,0,1-1.194-1.194h0A1.2,1.2,0,0,1,15.484,22.477ZM32.2,31.687H15.484a1.2,1.2,0,0,1-1.194-1.194h0A1.2,1.2,0,0,1,15.484,29.3H32.2a1.2,1.2,0,0,1,1.194,1.194h0A1.2,1.2,0,0,1,32.2,31.687Zm0-13.644H15.484a1.2,1.2,0,0,1-1.194-1.194h0a1.2,1.2,0,0,1,1.194-1.194H32.2a1.2,1.2,0,0,1,1.194,1.194h0A1.2,1.2,0,0,1,32.2,18.043Z" transform="translate(1724.178 1795.66)"/><text class="d" transform="translate(1745.538 1850.513)"><tspan x="-33.882" y="0">Paper hands</tspan></text></g></svg>