<svg xmlns="http://www.w3.org/2000/svg" xmlns:xlink="http://www.w3.org/1999/xlink" width="152.052" height="152.052" viewBox="0 0 152.052 152.052"><defs><style>.a{stroke:rgba(255,255,255,0.1);fill:url(#a);}.b,.d{fill:none;}.b{stroke:#00fff6;stroke-width:2px;stroke-dasharray:3;}.c,.d{stroke:#fff;}.c{fill:url(#b);}.e{fill:#fff;font-size:12px;font-family:Sansation Bold, Sansation;}</style><linearGradient id="a" x1="0.5" x2="0.5" y2="1" gradientUnits="objectBoundingBox"><stop offset="0" stop-color="#00fff6"/><stop offset="1" stop-color="#2b1097"/></linearGradient><linearGradient id="b" x1="0.5" x2="0.5" y2="1" gradientUnits="objectBoundingBox"><stop offset="0" stop-color="#fff"/><stop offset="1" stop-color="#2b1097"/></linearGradient></defs><g transform="translate(-992.523 -1518.601)"><path class="a" d="M93.789,29.453a8.262,8.262,0,0,1,6.323,0L143.151,47.28a8.262,8.262,0,0,1,4.471,4.471l17.827,43.039a8.262,8.262,0,0,1,0,6.323l-17.827,43.039a8.263,8.263,0,0,1-4.471,4.471l-43.039,17.827a8.262,8.262,0,0,1-6.323,0L50.751,148.622a8.262,8.262,0,0,1-4.471-4.471L28.453,101.113a8.262,8.262,0,0,1,0-6.323L46.28,51.751a8.261,8.261,0,0,1,4.471-4.471Z" transform="translate(971.597 1497.005)"/><path class="b" d="M91.052,19.375a7.244,7.244,0,0,1,5.544,0l47.911,19.845a7.243,7.243,0,0,1,3.92,3.921l19.846,47.911a7.247,7.247,0,0,1,0,5.544l-19.846,47.911a7.241,7.241,0,0,1-3.92,3.92L96.6,168.273a7.247,7.247,0,0,1-5.544,0L43.141,148.427a7.243,7.243,0,0,1-3.921-3.92L19.375,96.6a7.244,7.244,0,0,1,0-5.544L39.221,43.141a7.244,7.244,0,0,1,3.921-3.921Z" transform="translate(974.725 1500.803)"/><g transform="translate(936.234 1431.211)"><g transform="translate(120 158.855)"><path class="c" d="M0,3.565,12.264,0,24.528,3.565,12.264,23.173Z" transform="translate(0 0)"/><path class="d" d="M-1503.981,2185.442l12.495,3.83,12.019-3.849" transform="translate(1503.993 -2181.853)"/></g><g transform="translate(120 139.974)"><path class="c" d="M0,3.565,12.264,0,24.528,3.565,12.264,23.173Z" transform="translate(0 0)"/><path class="d" d="M-1504,2186l12.507,3.5,12.123-3.494" transform="translate(1504 -2182.454)"/></g></g><text class="e" transform="translate(1068.796 1629.452)"><tspan x="-16.811" y="0">HODL</tspan></text></g></svg>