<svg xmlns="http://www.w3.org/2000/svg" xmlns:xlink="http://www.w3.org/1999/xlink" width="152.052" height="152.052" viewBox="0 0 152.052 152.052"><defs><style>.a{stroke:rgba(255,255,255,0.1);fill:url(#a);}.b{fill:none;stroke:#00fff6;stroke-width:2px;stroke-dasharray:3;}.c,.d{fill:#fff;}.c{font-size:12px;font-family:Sansation Bold, Sansation;}</style><linearGradient id="a" x1="0.5" x2="0.5" y2="1" gradientUnits="objectBoundingBox"><stop offset="0" stop-color="#00fff6"/><stop offset="1" stop-color="#2b1097"/></linearGradient></defs><g transform="translate(-1169.523 -1745.463)"><path class="a" d="M93.789,29.453a8.262,8.262,0,0,1,6.323,0L143.151,47.28a8.262,8.262,0,0,1,4.471,4.471l17.827,43.039a8.262,8.262,0,0,1,0,6.323l-17.827,43.039a8.263,8.263,0,0,1-4.471,4.471l-43.039,17.827a8.262,8.262,0,0,1-6.323,0L50.751,148.622a8.262,8.262,0,0,1-4.471-4.471L28.453,101.113a8.262,8.262,0,0,1,0-6.323L46.28,51.751a8.261,8.261,0,0,1,4.471-4.471Z" transform="translate(1148.597 1723.867)"/><path class="b" d="M91.052,19.375a7.244,7.244,0,0,1,5.544,0l47.911,19.845a7.243,7.243,0,0,1,3.92,3.921l19.846,47.911a7.247,7.247,0,0,1,0,5.544l-19.846,47.911a7.241,7.241,0,0,1-3.92,3.92L96.6,168.273a7.247,7.247,0,0,1-5.544,0L43.141,148.427a7.243,7.243,0,0,1-3.921-3.92L19.375,96.6a7.244,7.244,0,0,1,0-5.544L39.221,43.141a7.244,7.244,0,0,1,3.921-3.921Z" transform="translate(1151.725 1727.665)"/><text class="c" transform="translate(1245.549 1856.489)"><tspan x="-33.838" y="0">To the Moon</tspan></text><g transform="translate(1145.082 1741.489)"><path class="d" d="M4.488,19.433a15.38,15.38,0,0,1,1.235-6.062,15.759,15.759,0,0,1,3.329-4.98A15.775,15.775,0,0,1,20.093,3.828a15.331,15.331,0,0,1,6.062,1.235,15.822,15.822,0,0,1,4.994,3.329,15.775,15.775,0,0,1,4.564,11.041,15.331,15.331,0,0,1-1.235,6.062,15.822,15.822,0,0,1-3.329,4.994,15.294,15.294,0,0,1-4.994,3.329,15.5,15.5,0,0,1-12.123,0,15.759,15.759,0,0,1-4.98-3.329,15.294,15.294,0,0,1-3.329-4.994A15.38,15.38,0,0,1,4.488,19.433ZM22.021,5.617a15.048,15.048,0,0,1,5.6,5.41A15.674,15.674,0,0,1,29.8,19.433q0,10.2-7.157,13.718a13.665,13.665,0,0,0,8.142-4.772,13.46,13.46,0,0,0,3.246-8.947A13.928,13.928,0,0,0,28.11,8.017,13.623,13.623,0,0,0,22.021,5.617Z" transform="translate(86.054 38.83)"/><g transform="translate(71.769 73.882)"><path class="d" d="M17.936,3.571a.155.155,0,0,0-.116-.12c-1.915-.468-6.34,1.2-8.737,3.6A10.362,10.362,0,0,0,7.918,8.425a4.336,4.336,0,0,0-2.109.264c-1.778.781-2.3,2.823-2.439,3.7a.315.315,0,0,0,.345.366l2.855-.313a6.346,6.346,0,0,0,.039.644.639.639,0,0,0,.187.391L7.9,14.581a.639.639,0,0,0,.391.187,6.335,6.335,0,0,0,.641.039l-.313,2.851A.315.315,0,0,0,8.985,18c.876-.141,2.922-.658,3.7-2.436a4.355,4.355,0,0,0,.268-2.1,10.378,10.378,0,0,0,1.38-1.165C16.74,9.907,18.4,5.581,17.936,3.571ZM12.192,9.2a1.5,1.5,0,1,1,2.126,0A1.5,1.5,0,0,1,12.192,9.2Z" transform="translate(-3.366 -3.372)"/><path class="d" d="M9.032,25.05h0a1.335,1.335,0,0,1-.7.282A.947.947,0,0,1,7.244,24.24a1.309,1.309,0,0,1,.278-.693l0,0a.118.118,0,0,0-.1-.2,1.618,1.618,0,0,0-.947.461c-.634.634-.693,2.985-.693,2.985s2.355-.06,2.989-.693a1.607,1.607,0,0,0,.461-.947A.12.12,0,0,0,9.032,25.05Z" transform="translate(-4.575 -13.344)"/></g></g></g></svg>