<svg xmlns="http://www.w3.org/2000/svg" xmlns:xlink="http://www.w3.org/1999/xlink" width="152.052" height="152.052" viewBox="0 0 152.052 152.052"><defs><style>.a{stroke:rgba(255,255,255,0.1);fill:url(#a);}.b{fill:none;stroke:#b19eff;stroke-width:2px;stroke-dasharray:3;}.c{fill:url(#b);}</style><linearGradient id="a" x1="0.5" x2="0.5" y2="1" gradientUnits="objectBoundingBox"><stop offset="0" stop-color="#a7178f"/><stop offset="1" stop-color="#2b1097"/></linearGradient><radialGradient id="b" cx="0.5" cy="0.5" r="0.749" gradientUnits="objectBoundingBox"><stop offset="0" stop-color="#fff"/><stop offset="1" stop-color="#c560b4"/></radialGradient></defs><g transform="translate(-490.265 -1625.345)"><path class="a" d="M93.789,29.453a8.262,8.262,0,0,1,6.323,0L143.151,47.28a8.262,8.262,0,0,1,4.471,4.471l17.827,43.039a8.262,8.262,0,0,1,0,6.323l-17.827,43.039a8.263,8.263,0,0,1-4.471,4.471l-43.039,17.827a8.262,8.262,0,0,1-6.323,0L50.751,148.622a8.262,8.262,0,0,1-4.471-4.471L28.453,101.113a8.262,8.262,0,0,1,0-6.323L46.28,51.751a8.261,8.261,0,0,1,4.471-4.471Z" transform="translate(469.34 1603.749)"/><path class="b" d="M91.052,19.375a7.244,7.244,0,0,1,5.544,0l47.911,19.845a7.243,7.243,0,0,1,3.92,3.921l19.846,47.911a7.247,7.247,0,0,1,0,5.544l-19.846,47.911a7.241,7.241,0,0,1-3.92,3.92L96.6,168.273a7.247,7.247,0,0,1-5.544,0L43.141,148.427a7.243,7.243,0,0,1-3.921-3.92L19.375,96.6a7.244,7.244,0,0,1,0-5.544L39.221,43.141a7.244,7.244,0,0,1,3.921-3.921Z" transform="translate(472.467 1607.547)"/><g transform="translate(538.979 1674.929)"><path class="c" d="M21.623,5.75a.472.472,0,0,0-.439.657l.272.641,4.807,11.208a.472.472,0,0,0,.813.1L35.947,6.506a.472.472,0,0,0-.378-.756Z" transform="translate(-9.842 -5.75)"/><path class="c" d="M72.894,10.284,68.019,21.666a.472.472,0,0,0,.435.658H80.382a.472.472,0,0,0,.4-.722L73.729,10.221a.472.472,0,0,0-.835.063Z" transform="translate(-25.893 -7.206)"/><path class="c" d="M11.559,10.232,4.507,21.608a.472.472,0,0,0,.4.722H16.837a.473.473,0,0,0,.433-.659L12.386,10.295a.472.472,0,0,0-.827-.063Z" transform="translate(-4.115 -7.212)"/><path class="c" d="M62.82,5.75H48a.229.229,0,0,0-.184.367l9.439,12.573a.229.229,0,0,0,.394-.047l4.97-11.594.4-.985a.227.227,0,0,0-.2-.314Z" transform="translate(-18.968 -5.75)"/><path class="c" d="M29.58,64.735,19.018,34.8a.447.447,0,0,0-.422-.3H4.388a.439.439,0,0,0-.348.709L29.55,68.255a.6.6,0,0,0,.755.162.591.591,0,0,0,.282-.718Z" transform="translate(-3.948 -15.603)"/><path class="c" d="M73.69,34.5H59.482a.443.443,0,0,0-.418.3l-11.6,32.852a.615.615,0,0,0,1.066.581L74.038,35.209a.439.439,0,0,0-.348-.709Z" transform="translate(-18.85 -15.603)"/><path class="c" d="M41.961,14.084,48.575,22.9a.472.472,0,0,1-.378.756H34.969a.472.472,0,0,1-.378-.756L41.2,14.084a.472.472,0,0,1,.756,0Zm-.827,36.649-8-22.665a.472.472,0,0,1,.445-.629h16a.472.472,0,0,1,.445.629l-8,22.665a.472.472,0,0,1-.89,0Z" transform="translate(-13.943 -8.541)"/></g></g></svg>