<svg xmlns="http://www.w3.org/2000/svg" xmlns:xlink="http://www.w3.org/1999/xlink" width="139.31" height="139.31" viewBox="0 0 139.31 139.31"><defs><style>.a{stroke:rgba(255,255,255,0.1);fill:url(#a);}.b,.c{fill:#fff;}.b{font-size:12px;font-family:Sansation Bold, Sansation;}</style><linearGradient id="a" x1="0.5" x2="0.5" y2="1" gradientUnits="objectBoundingBox"><stop offset="0" stop-color="red"/><stop offset="1" stop-color="#2b1097"/></linearGradient></defs><g transform="translate(-1464.636 -1531.502)"><path class="a" d="M93.789,29.453a8.262,8.262,0,0,1,6.323,0L143.151,47.28a8.262,8.262,0,0,1,4.471,4.471l17.827,43.039a8.262,8.262,0,0,1,0,6.323l-17.827,43.039a8.263,8.263,0,0,1-4.471,4.471l-43.039,17.827a8.262,8.262,0,0,1-6.323,0L50.751,148.622a8.262,8.262,0,0,1-4.471-4.471L28.453,101.113a8.262,8.262,0,0,1,0-6.323L46.28,51.751a8.261,8.261,0,0,1,4.471-4.471Z" transform="translate(1437.34 1503.206)"/><text class="b" transform="translate(1534.291 1635.57)"><tspan x="-12.272" y="0">FUD</tspan></text><path class="c" d="M18.825,0C8.427,0,0,7.376,0,16.472A15.758,15.758,0,0,0,6.949,29.245a2.312,2.312,0,0,1,.993,2.2l-.691,4.868A1.167,1.167,0,0,0,8.405,37.65h5.714V33.532a.59.59,0,0,1,.588-.588h1.177a.59.59,0,0,1,.588.588V37.65h4.706V33.532a.59.59,0,0,1,.588-.588h1.177a.59.59,0,0,1,.588.588V37.65h5.714A1.167,1.167,0,0,0,30.4,36.312l-.691-4.868a2.3,2.3,0,0,1,.993-2.2A15.758,15.758,0,0,0,37.65,16.472C37.65,7.376,29.223,0,18.825,0ZM11.766,23.531a4.706,4.706,0,1,1,4.706-4.706A4.711,4.711,0,0,1,11.766,23.531Zm14.119,0a4.706,4.706,0,1,1,4.706-4.706A4.711,4.711,0,0,1,25.884,23.531Z" transform="translate(1515.466 1581.745)"/></g></svg>