<svg xmlns="http://www.w3.org/2000/svg" xmlns:xlink="http://www.w3.org/1999/xlink" width="139.31" height="139.31" viewBox="0 0 139.31 139.31"><defs><style>.a{stroke:rgba(255,255,255,0.1);fill:url(#a);}.b,.c{stroke:#fff;}.b{fill:url(#b);}.c{fill:none;}.d{fill:#fff;font-size:12px;font-family:Sansation Bold, Sansation;}</style><linearGradient id="a" x1="0.5" x2="0.5" y2="1" gradientUnits="objectBoundingBox"><stop offset="0" stop-color="#00fff6"/><stop offset="1" stop-color="#2b1097"/></linearGradient><linearGradient id="b" x1="0.5" x2="0.5" y2="1" gradientUnits="objectBoundingBox"><stop offset="0" stop-color="#fff"/><stop offset="1" stop-color="#2b1097"/></linearGradient></defs><g transform="translate(-1175.894 -1525.301)"><path class="a" d="M93.789,29.453a8.262,8.262,0,0,1,6.323,0L143.151,47.28a8.262,8.262,0,0,1,4.471,4.471l17.827,43.039a8.262,8.262,0,0,1,0,6.323l-17.827,43.039a8.263,8.263,0,0,1-4.471,4.471l-43.039,17.827a8.262,8.262,0,0,1-6.323,0L50.751,148.622a8.262,8.262,0,0,1-4.471-4.471L28.453,101.113a8.262,8.262,0,0,1,0-6.323L46.28,51.751a8.261,8.261,0,0,1,4.471-4.471Z" transform="translate(1148.597 1497.005)"/><g transform="translate(1113.234 1431.211)"><g transform="translate(120 158.855)"><path class="b" d="M0,3.565,12.264,0,24.528,3.565,12.264,23.173Z" transform="translate(0 0)"/><path class="c" d="M-1503.981,2185.442l12.495,3.83,12.019-3.849" transform="translate(1503.993 -2181.853)"/></g><g transform="translate(120 139.974)"><path class="b" d="M0,3.565,12.264,0,24.528,3.565,12.264,23.173Z" transform="translate(0 0)"/><path class="c" d="M-1504,2186l12.507,3.5,12.123-3.494" transform="translate(1504 -2182.454)"/></g></g><text class="d" transform="translate(1245.796 1629.452)"><tspan x="-16.811" y="0">HODL</tspan></text></g></svg>