<svg xmlns="http://www.w3.org/2000/svg" xmlns:xlink="http://www.w3.org/1999/xlink" width="56.448" height="60" viewBox="0 0 56.448 60"><defs><style>.a{fill:url(#a);}</style><linearGradient id="a" x1="0.5" x2="0.5" y2="1" gradientUnits="objectBoundingBox"><stop offset="0" stop-color="#fff"/><stop offset="1" stop-color="#2b1097"/></linearGradient></defs><g transform="translate(9.099)"><path class="a" d="M21.476,5.75a.327.327,0,0,0-.3.454l.188.444L24.686,14.4a.327.327,0,0,0,.562.067l6.139-8.2a.327.327,0,0,0-.261-.523Z" transform="translate(-13.325 -5.75)"/><path class="a" d="M71.381,10.2l-3.373,7.875a.327.327,0,0,0,.3.455h8.254a.327.327,0,0,0,.278-.5l-4.881-7.874a.327.327,0,0,0-.578.043Z" transform="translate(-38.86 -8.066)"/><path class="a" d="M9.365,10.166,4.485,18.037a.327.327,0,0,0,.278.5h8.254a.327.327,0,0,0,.3-.456l-3.38-7.871a.327.327,0,0,0-.572-.043Z" transform="translate(-4.214 -8.076)"/><path class="a" d="M58.184,5.75H47.933A.159.159,0,0,0,47.805,6l6.531,8.7a.158.158,0,0,0,.273-.033l3.439-8.022.278-.682a.157.157,0,0,0-.139-.217Z" transform="translate(-27.842 -5.75)"/><path class="a" d="M21.683,55.42,14.375,34.705a.309.309,0,0,0-.292-.205H4.253a.3.3,0,0,0-.241.49L21.663,57.856a.414.414,0,0,0,.522.112.409.409,0,0,0,.2-.5Z" transform="translate(-3.948 -21.425)"/><path class="a" d="M65.6,34.5H55.769a.306.306,0,0,0-.289.205L47.455,57.436a.426.426,0,0,0,.738.4L65.841,34.99a.3.3,0,0,0-.241-.49Z" transform="translate(-27.655 -21.425)"/><path class="a" d="M39.234,14.026l4.576,6.1a.327.327,0,0,1-.262.523H34.4a.327.327,0,0,1-.261-.523l4.576-6.1a.327.327,0,0,1,.523,0Zm-.572,25.358L33.13,23.7a.327.327,0,0,1,.308-.436h11.07a.327.327,0,0,1,.308.436L39.281,39.384a.327.327,0,0,1-.616,0Z" transform="translate(-19.848 -10.191)"/></g><path class="a" d="M18.063,15.477a2.836,2.836,0,0,0-3.951-.562,2.8,2.8,0,0,0-.564,3.931l3.36,4.458a1.4,1.4,0,0,1-.132,1.834l-1.129,1.123a1.407,1.407,0,0,1-2.082-.1l-7.92-9.459V3.683A2.822,2.822,0,0,0,0,3.683V22.848A4.2,4.2,0,0,0,.926,25.48l9.182,11.785a5.226,5.226,0,0,1,.917,1.9,1.381,1.381,0,0,0,1.349,1.018H23.99a1.412,1.412,0,0,0,1.411-1.4V28.955a11.212,11.212,0,0,0-2.258-6.739l-5.08-6.739ZM53.626.875A2.812,2.812,0,0,0,50.8,3.683V16.705l-7.92,9.459a1.421,1.421,0,0,1-2.082.1l-1.129-1.123A1.4,1.4,0,0,1,39.54,23.3l3.36-4.458a2.8,2.8,0,0,0-.564-3.931,2.836,2.836,0,0,0-3.951.562L33.3,22.216a11.212,11.212,0,0,0-2.258,6.739v9.828a1.412,1.412,0,0,0,1.411,1.4H44.074a1.388,1.388,0,0,0,1.349-1.018,5.226,5.226,0,0,1,.917-1.9L55.522,25.48a4.2,4.2,0,0,0,.926-2.633V3.683A2.812,2.812,0,0,0,53.626.875Z" transform="translate(0 19.813)"/></svg>