<svg xmlns="http://www.w3.org/2000/svg" xmlns:xlink="http://www.w3.org/1999/xlink" width="24.68" height="24.68" viewBox="0 0 24.68 24.68"><defs><style>.a{fill:#fff;}.b{fill:url(#a);}.c{fill:none;stroke:#2b1097;stroke-width:0.5px;}.d{clip-path:url(#b);}</style><linearGradient id="a" x1="0.5" x2="0.5" y2="1" gradientUnits="objectBoundingBox"><stop offset="0" stop-color="#a7178f"/><stop offset="1" stop-color="#2b1097"/></linearGradient><clipPath id="b"><rect class="a" width="8.171" height="6.636"/></clipPath></defs><g transform="translate(-18.569 -18.569)"><path class="b" d="M38.181,28.923a1.3,1.3,0,0,1,.993,0l6.757,2.8a1.3,1.3,0,0,1,.7.7l2.8,6.757a1.3,1.3,0,0,1,0,.993l-2.8,6.757a1.3,1.3,0,0,1-.7.7l-6.757,2.8a1.3,1.3,0,0,1-.993,0l-6.757-2.8a1.3,1.3,0,0,1-.7-.7l-2.8-6.757a1.3,1.3,0,0,1,0-.993l2.8-6.757a1.3,1.3,0,0,1,.7-.7Z" transform="translate(-7.833 -8.703)"/><path class="c" d="M30.463,18.913a1.167,1.167,0,0,1,.893,0l7.72,3.2a1.167,1.167,0,0,1,.632.632l3.2,7.72a1.168,1.168,0,0,1,0,.893l-3.2,7.72a1.167,1.167,0,0,1-.632.632l-7.72,3.2a1.168,1.168,0,0,1-.893,0l-7.72-3.2a1.167,1.167,0,0,1-.632-.632l-3.2-7.72a1.167,1.167,0,0,1,0-.893l3.2-7.72a1.167,1.167,0,0,1,.632-.632Z" transform="translate(0 0)"/><g transform="translate(26.888 27.305)"><path class="a" d="M101.265,84.214h1.254l-.8,1.007Z" transform="translate(-98.637 -84.214)"/><path class="a" d="M113.354,84.214l-.456,1.007-.8-1.007Z" transform="translate(-108.066 -84.214)"/><path class="a" d="M107.446,87.165l.606.766H106.84Z" transform="translate(-103.488 -86.783)"/><path class="a" d="M95.182,85.532l.442.977H94.566Z" transform="translate(-92.806 -85.361)"/><path class="a" d="M120.744,85.532l.626.977H120.3Z" transform="translate(-115.204 -85.361)"/><path class="a" d="M113.1,95.282h1.163l-2.111,2.584h-.005Z" transform="translate(-108.109 -93.847)"/><path class="a" d="M95.729,95.282l.954,2.584h0l-2.111-2.584Z" transform="translate(-92.806 -93.847)"/><path class="a" d="M106.154,95.282h1.391l-.7,1.866Z" transform="translate(-102.891 -93.847)"/><g class="d" transform="translate(0 0.989)"><path class="a" d="M83.615,100.391a.405.405,0,0,0-.572-.083.419.419,0,0,0-.082.581l.486.659a.209.209,0,0,1-.019.271l-.163.166a.2.2,0,0,1-.3-.014l-1.147-1.4V98.649a.409.409,0,1,0-.817,0v2.831a.629.629,0,0,0,.134.389l1.329,1.741a.777.777,0,0,1,.133.281.2.2,0,0,0,.2.15h1.682a.206.206,0,0,0,.2-.207v-1.452a1.679,1.679,0,0,0-.327-1Zm5.148-2.157a.411.411,0,0,0-.409.415v1.923l-1.147,1.4a.2.2,0,0,1-.3.014l-.163-.166a.209.209,0,0,1-.019-.271l.486-.659a.419.419,0,0,0-.082-.581.405.405,0,0,0-.572.083l-.735,1a1.679,1.679,0,0,0-.327,1v1.452a.206.206,0,0,0,.2.207H87.38a.2.2,0,0,0,.2-.15.778.778,0,0,1,.133-.281l1.329-1.741a.629.629,0,0,0,.134-.389V98.649A.411.411,0,0,0,88.763,98.234Z" transform="translate(-81 -97.404)"/></g></g></g></svg>