<svg xmlns="http://www.w3.org/2000/svg" xmlns:xlink="http://www.w3.org/1999/xlink" width="86.945" height="86.924" viewBox="0 0 86.945 86.924"><defs><style>.a{fill:url(#a);}.b{fill:#fff;}</style><linearGradient id="a" x1="0.92" y1="0.046" x2="0.303" y2="0.711" gradientUnits="objectBoundingBox"><stop offset="0" stop-color="#00ff6f"/><stop offset="1" stop-color="#00ecff"/></linearGradient></defs><g transform="matrix(0.875, -0.485, 0.485, 0.875, 0, 31.016)"><path class="a" d="M63.639.867a.679.679,0,0,0-.507-.523C54.768-1.7,35.443,5.587,24.973,16.057a45.256,45.256,0,0,0-5.089,6.011,18.936,18.936,0,0,0-9.209,1.153C2.91,26.635.65,35.552.02,39.38a1.377,1.377,0,0,0,1.507,1.6L14,39.611a27.719,27.719,0,0,0,.169,2.814,2.791,2.791,0,0,0,.815,1.707l4.828,4.828a2.79,2.79,0,0,0,1.707.815,27.671,27.671,0,0,0,2.8.169L22.943,62.4a1.377,1.377,0,0,0,1.6,1.507C28.37,63.287,37.3,61.027,40.7,53.263a19.022,19.022,0,0,0,1.168-9.179A45.329,45.329,0,0,0,47.9,39C58.412,28.541,65.653,9.646,63.639.867ZM38.548,25.451a6.566,6.566,0,1,1,9.286,0A6.56,6.56,0,0,1,38.548,25.451Z" transform="translate(0 0)"/><path class="b" d="M8.517,4.483h0a3.5,3.5,0,0,1-1.829.739A2.486,2.486,0,0,1,3.824,2.358a3.435,3.435,0,0,1,.73-1.82L4.563.529A.309.309,0,0,0,4.3,0,4.246,4.246,0,0,0,1.82,1.213C.157,2.875,0,9.046,0,9.046s6.18-.157,7.842-1.82a4.218,4.218,0,0,0,1.21-2.485A.316.316,0,0,0,8.517,4.483Z" transform="translate(3.18 51.752)"/></g></svg>