<svg xmlns="http://www.w3.org/2000/svg" width="31.423" height="31.423" viewBox="0 0 31.423 31.423"><defs><style>.a{fill:#00fff6;}</style></defs><path class="a" d="M0,24.875V27.5c0,2.166,5.278,3.928,11.784,3.928S23.567,29.662,23.567,27.5V24.875C21.033,26.661,16.4,27.5,11.784,27.5S2.535,26.661,0,24.875ZM19.639,7.856c6.506,0,11.784-1.761,11.784-3.928S26.145,0,19.639,0,7.856,1.761,7.856,3.928,13.134,7.856,19.639,7.856ZM0,18.437V21.6c0,2.166,5.278,3.928,11.784,3.928S23.567,23.77,23.567,21.6V18.437C21.033,20.523,16.393,21.6,11.784,21.6S2.535,20.523,0,18.437Zm25.531.675c3.517-.681,5.892-1.946,5.892-3.4V13.091a15.071,15.071,0,0,1-5.892,2.117ZM11.784,9.82C5.278,9.82,0,12.017,0,14.73s5.278,4.91,11.784,4.91,11.784-2.2,11.784-4.91S18.289,9.82,11.784,9.82Zm13.459,3.455c3.682-.663,6.18-1.964,6.18-3.455V7.2C29.244,8.74,25.5,9.568,21.56,9.765A6.873,6.873,0,0,1,25.243,13.275Z"/></svg>