<svg xmlns="http://www.w3.org/2000/svg" width="34.04" height="31.422" viewBox="0 0 34.04 31.422"><defs><style>.a{fill:#00fff6;}</style></defs><path class="a" d="M32.505,11.25H8.285a4.914,4.914,0,0,0-4.91,4.91V29.907a4.914,4.914,0,0,0,4.91,4.91H32.505a4.914,4.914,0,0,0,4.91-4.91V16.16A4.914,4.914,0,0,0,32.505,11.25Z" transform="translate(-3.375 -3.394)"/><path class="a" d="M27.322,4.582,8.1,8.338c-1.473.327-3.6,1.808-3.6,3.609a5.156,5.156,0,0,1,4.01-1.555H31.994V8.714a4.7,4.7,0,0,0-1.137-3.077h0A3.87,3.87,0,0,0,27.322,4.582Z" transform="translate(-3.191 -4.499)"/></svg>