<svg xmlns="http://www.w3.org/2000/svg" xmlns:xlink="http://www.w3.org/1999/xlink" width="136.043" height="136.043" viewBox="0 0 136.043 136.043"><defs><style>.a{fill:url(#a);}.b{fill:url(#b);}.c{fill:none;stroke:#00fff6;stroke-width:2px;}.d{fill:url(#c);}.e{clip-path:url(#k);}</style><linearGradient id="a" x1="0.5" y1="0.361" x2="0.5" y2="1" gradientUnits="objectBoundingBox"><stop offset="0" stop-color="#00fff6"/><stop offset="1" stop-color="#2b1097"/></linearGradient><linearGradient id="b" x1="0.5" y1="1" x2="0.5" gradientUnits="objectBoundingBox"><stop offset="0" stop-color="#2b1097"/><stop offset="1" stop-color="#00fff6"/></linearGradient><linearGradient id="c" y1="0" y2="0.68" xlink:href="#b"/><clipPath id="k"><rect class="a" width="45.3" height="36.788"/></clipPath></defs><g transform="translate(-12.828 -10.177)"><path class="b" d="M85.239,148.611a7.191,7.191,0,0,0,5.5,0l37.46-15.517a7.191,7.191,0,0,0,3.891-3.891l15.516-37.46a7.191,7.191,0,0,0,0-5.5l-15.516-37.46a7.192,7.192,0,0,0-3.891-3.891L90.743,29.371a7.191,7.191,0,0,0-5.5,0L47.779,44.888a7.191,7.191,0,0,0-3.891,3.891L28.371,86.239a7.191,7.191,0,0,0,0,5.5L43.888,129.2a7.19,7.19,0,0,0,3.891,3.891Z" transform="translate(-7.501 -10.433)"/><path class="c" d="M83.346,19.317a6.471,6.471,0,0,1,4.953,0l42.8,17.728a6.47,6.47,0,0,1,3.5,3.5l17.728,42.8a6.474,6.474,0,0,1,0,4.953L134.6,131.1a6.469,6.469,0,0,1-3.5,3.5L88.3,152.328a6.474,6.474,0,0,1-4.953,0L40.547,134.6a6.47,6.47,0,0,1-3.5-3.5L19.317,88.3a6.471,6.471,0,0,1,0-4.953l17.728-42.8a6.472,6.472,0,0,1,3.5-3.5Z" transform="translate(-4.973 -7.624)"/><g transform="translate(58.559 58.218)"><path class="d" d="M101.265,84.214h6.95L103.792,89.8Z" transform="translate(-86.693 -84.214)"/><path class="d" d="M119.051,84.214,116.523,89.8,112.1,84.214Z" transform="translate(-89.738 -84.214)"/><path class="d" d="M110.2,87.165l3.362,4.245H106.84Z" transform="translate(-88.26 -85.043)"/><path class="d" d="M97.983,85.532l2.452,5.419h-5.87Z" transform="translate(-84.811 -84.584)"/><path class="d" d="M122.755,85.532l3.469,5.419H120.3Z" transform="translate(-92.042 -84.584)"/><path class="d" d="M117.436,95.282h6.445l-11.7,14.326h-.028Z" transform="translate(-89.751 -87.323)"/><path class="d" d="M101.011,95.282l5.287,14.326h-.027l-11.7-14.326Z" transform="translate(-84.811 -87.323)"/><path class="d" d="M106.154,95.282h7.71l-3.855,10.346Z" transform="translate(-88.067 -87.323)"/><g class="e" transform="translate(0 5.483)"><path class="a" d="M95.5,110.19a2.246,2.246,0,0,0-3.171-.459,2.325,2.325,0,0,0-.453,3.218l2.7,3.651a1.161,1.161,0,0,1-.106,1.5l-.906.92a1.114,1.114,0,0,1-1.67-.079L85.53,111.2V100.533a2.265,2.265,0,1,0-4.53,0v15.693a3.487,3.487,0,0,0,.743,2.156l7.368,9.65a4.31,4.31,0,0,1,.736,1.559,1.112,1.112,0,0,0,1.083.833h9.322a1.144,1.144,0,0,0,1.132-1.15v-8.047a9.306,9.306,0,0,0-1.812-5.519Zm28.539-11.956a2.28,2.28,0,0,0-2.265,2.3V111.2l-6.356,7.746a1.125,1.125,0,0,1-1.67.079l-.906-.92a1.161,1.161,0,0,1-.106-1.5l2.7-3.651a2.325,2.325,0,0,0-.453-3.218,2.246,2.246,0,0,0-3.171.459l-4.077,5.518a9.306,9.306,0,0,0-1.812,5.519v8.047a1.144,1.144,0,0,0,1.133,1.15h9.322a1.118,1.118,0,0,0,1.083-.833,4.313,4.313,0,0,1,.736-1.559l7.368-9.65a3.485,3.485,0,0,0,.743-2.156V100.533A2.28,2.28,0,0,0,124.035,98.234Z" transform="translate(-81 -93.635)"/></g></g></g></svg>