<svg xmlns="http://www.w3.org/2000/svg" xmlns:xlink="http://www.w3.org/1999/xlink" width="222.75" height="215.22" viewBox="0 0 222.75 215.22"><defs><style>.a{fill:url(#a);}.b{fill:url(#b);}.c,.f{fill:none;stroke:#2b1097;}.c{stroke-width:2px;}.d{fill:url(#c);}.e{clip-path:url(#k);}.f{stroke-linecap:round;stroke-linejoin:round;}</style><linearGradient id="a" x1="0.5" y1="0.361" x2="0.5" y2="1" gradientUnits="objectBoundingBox"><stop offset="0" stop-color="#00fff6"/><stop offset="1" stop-color="#2b1097"/></linearGradient><linearGradient id="b" x1="0.5" y1="1" x2="0.5" gradientUnits="objectBoundingBox"><stop offset="0" stop-color="#2b1097"/><stop offset="1" stop-color="#00fff6"/></linearGradient><linearGradient id="c" y1="0" y2="0.68" xlink:href="#b"/><clipPath id="k"><rect class="a" width="63" height="51.161" transform="translate(81 91.839)"/></clipPath></defs><g transform="translate(-0.625 9.013)"><path class="b" d="M107.673,195.414a10,10,0,0,0,7.654,0l52.1-21.579a10,10,0,0,0,5.412-5.412l21.579-52.1a10,10,0,0,0,0-7.654l-21.579-52.1a10,10,0,0,0-5.412-5.412l-52.1-21.579a10,10,0,0,0-7.654,0l-52.1,21.579a10,10,0,0,0-5.412,5.412l-21.579,52.1a10,10,0,0,0,0,7.654l21.579,52.1a10,10,0,0,0,5.412,5.412Z" transform="translate(0 0)"/><path class="c" d="M108.556,19.509a9,9,0,0,1,6.888,0l59.522,24.655a9,9,0,0,1,4.87,4.871l24.655,59.522a9,9,0,0,1,0,6.888l-24.655,59.522a9,9,0,0,1-4.87,4.87l-59.522,24.655a9,9,0,0,1-6.888,0L49.034,179.836a9,9,0,0,1-4.871-4.87L19.509,115.444a9,9,0,0,1,0-6.888L44.164,49.034a9,9,0,0,1,4.871-4.871Z"/><path class="d" d="M101.265,84.214h9.666L104.78,91.98Z"/><path class="d" d="M121.767,84.214l-3.516,7.766L112.1,84.214Z"/><path class="d" d="M111.516,87.165l4.675,5.9H106.84Z"/><path class="d" d="M99.318,85.532l3.411,7.536H94.566Z"/><path class="d" d="M123.713,85.532l4.825,7.536H120.3Z"/><path class="d" d="M119.5,95.282h8.963l-16.277,19.924h-.039Z"/><path class="d" d="M103.529,95.282l7.353,19.924h-.038L94.566,95.282Z"/><path class="d" d="M106.154,95.282h10.723l-5.361,14.389Z"/><g class="e"><path class="a" d="M101.16,114.861a3.123,3.123,0,0,0-4.41-.639,3.233,3.233,0,0,0-.63,4.476l3.75,5.077a1.615,1.615,0,0,1-.148,2.088l-1.26,1.279a1.549,1.549,0,0,1-2.323-.11L87.3,116.26V101.431a3.15,3.15,0,1,0-6.3,0v21.824a4.85,4.85,0,0,0,1.034,3l10.247,13.42a5.993,5.993,0,0,1,1.024,2.168A1.547,1.547,0,0,0,94.811,143h12.964a1.592,1.592,0,0,0,1.575-1.6V130.21a12.942,12.942,0,0,0-2.52-7.675Zm39.69-16.627a3.171,3.171,0,0,0-3.15,3.2V116.26l-8.84,10.772a1.564,1.564,0,0,1-2.323.11l-1.26-1.279a1.615,1.615,0,0,1-.147-2.088l3.75-5.077a3.233,3.233,0,0,0-.63-4.476,3.123,3.123,0,0,0-4.41.639l-5.67,7.674a12.942,12.942,0,0,0-2.52,7.675V141.4a1.592,1.592,0,0,0,1.575,1.6h12.964a1.555,1.555,0,0,0,1.506-1.159,6,6,0,0,1,1.024-2.168l10.247-13.42a4.846,4.846,0,0,0,1.034-3V101.431A3.171,3.171,0,0,0,140.85,98.234Z"/></g><path class="f" d="M207.245,66.617l7.3,9.473a.568.568,0,0,0,.2.164.574.574,0,0,0,.252.059.57.57,0,0,0,.451-.222l7.3-9.473a.582.582,0,0,0,.033-.659l-2.477-4a.573.573,0,0,0-.485-.271h-9.652a.57.57,0,0,0-.485.271l-2.477,4a.582.582,0,0,0,.033.659Z"/><path class="f" d="M207.688,66.188h14.624"/><path class="f" d="M220.062,62.25l-1.687,3.938L215,61.688"/><path class="f" d="M209.938,62.25l1.687,3.938,3.375-4.5"/><path class="f" d="M215,75.75l-3.375-9.562"/><path class="f" d="M215,75.75l3.375-9.562"/><path class="f" d="M207.245,149.617l7.3,9.473a.575.575,0,0,0,.2.164.581.581,0,0,0,.252.058.566.566,0,0,0,.451-.222l7.3-9.473a.582.582,0,0,0,.033-.659l-2.477-4a.57.57,0,0,0-.485-.271h-9.652a.567.567,0,0,0-.485.271l-2.477,4a.582.582,0,0,0,.033.659Z"/><path class="f" d="M207.688,149.188h14.624"/><path class="f" d="M220.062,145.25l-1.687,3.938-3.375-4.5"/><path class="f" d="M209.938,145.25l1.687,3.938,3.375-4.5"/><path class="f" d="M215,158.75l-3.375-9.562"/><path class="f" d="M215,158.75l3.375-9.562"/><g transform="translate(0 -2)"><path class="f" d="M1.245,151.617l7.3,9.473a.568.568,0,0,0,.9,0l7.3-9.473a.58.58,0,0,0,.033-.659l-2.477-4a.567.567,0,0,0-.207-.2.574.574,0,0,0-.278-.072H4.174a.573.573,0,0,0-.278.072.566.566,0,0,0-.207.2l-2.477,4a.581.581,0,0,0,.033.659Z"/><path class="f" d="M1.688,151.188H16.313"/><path class="f" d="M14.063,147.25l-1.687,3.938L9,146.688"/><path class="f" d="M3.938,147.25l1.688,3.938L9,146.688"/><path class="f" d="M9,160.75l-3.375-9.562"/><path class="f" d="M9,160.75l3.375-9.562"/></g><path class="f" d="M1.245,66.617l7.3,9.473a.569.569,0,0,0,.9,0l7.3-9.473a.581.581,0,0,0,.033-.659l-2.477-4a.57.57,0,0,0-.485-.271H4.174a.57.57,0,0,0-.485.271l-2.477,4a.581.581,0,0,0,.033.659Z"/><path class="f" d="M1.688,66.188H16.313"/><path class="f" d="M14.063,62.25l-1.687,3.938L9,61.688"/><path class="f" d="M3.938,62.25l1.688,3.938L9,61.688"/><path class="f" d="M9,75.75,5.625,66.188"/><path class="f" d="M9,75.75l3.375-9.562"/><g transform="translate(-43 -10)"><path class="f" d="M147.245,6.617l7.3,9.473a.569.569,0,0,0,.9,0l7.3-9.473a.582.582,0,0,0,.033-.659l-2.477-4a.573.573,0,0,0-.485-.271h-9.652a.57.57,0,0,0-.485.271l-2.477,4a.582.582,0,0,0,.033.659Z"/><path class="f" d="M147.688,6.188h14.624"/><path class="f" d="M160.062,2.25l-1.687,3.938L155,1.688"/><path class="f" d="M149.938,2.25l1.687,3.938L155,1.688"/><path class="f" d="M155,15.75l-3.375-9.562"/><path class="f" d="M155,15.75l3.375-9.562"/></g></g></svg>