<svg xmlns="http://www.w3.org/2000/svg" xmlns:xlink="http://www.w3.org/1999/xlink" width="400.755" height="400.755" viewBox="0 0 400.755 400.755"><defs><style>.a{fill:url(#a);}.b{fill:url(#b);}.c{fill:none;stroke:#00fff6;stroke-width:2px;}.d{fill:url(#c);}.e{clip-path:url(#k);}</style><linearGradient id="a" x1="0.5" y1="0.361" x2="0.5" y2="1" gradientUnits="objectBoundingBox"><stop offset="0" stop-color="#00fff6"/><stop offset="1" stop-color="#2b1097"/></linearGradient><linearGradient id="b" x1="0.5" y1="1" x2="0.5" gradientUnits="objectBoundingBox"><stop offset="0" stop-color="#2b1097"/><stop offset="1" stop-color="#00fff6"/></linearGradient><linearGradient id="c" y1="0" y2="0.68" xlink:href="#b"/><clipPath id="k"><rect class="a" width="134.764" height="109.44"/></clipPath></defs><g transform="translate(-1963.842 -1518.563)"><path class="b" d="M198.63,385.18a21.394,21.394,0,0,0,16.373,0l111.442-46.16a21.393,21.393,0,0,0,11.577-11.577L384.182,216a21.392,21.392,0,0,0,0-16.373L338.022,88.189a21.4,21.4,0,0,0-11.577-11.577L215,30.452a21.392,21.392,0,0,0-16.373,0L87.19,76.612A21.393,21.393,0,0,0,75.613,88.189L29.452,199.63a21.394,21.394,0,0,0,0,16.373l46.161,111.44A21.39,21.39,0,0,0,87.19,339.02Z" transform="translate(1956.334 1512.194)"/><path class="c" d="M210.771,20.289a19.251,19.251,0,0,1,14.734,0L352.83,73.028a19.248,19.248,0,0,1,10.418,10.419l52.74,127.324a19.259,19.259,0,0,1,0,14.734L363.248,352.83a19.244,19.244,0,0,1-10.418,10.418l-127.325,52.74a19.259,19.259,0,0,1-14.734,0L83.448,363.248A19.248,19.248,0,0,1,73.028,352.83L20.289,225.506a19.251,19.251,0,0,1,0-14.734L73.028,83.448A19.252,19.252,0,0,1,83.448,73.028Z" transform="translate(1946.082 1500.803)"/><g transform="translate(2097.908 1659.503)"><path class="d" d="M101.265,84.214h20.677l-13.158,16.612Z" transform="translate(-57.916 -84.214)"/><path class="d" d="M132.779,84.214l-7.521,16.612L112.1,84.214Z" transform="translate(-45.573 -84.214)"/><path class="d" d="M116.843,87.165l10,12.627h-20Z" transform="translate(-51.565 -80.851)"/><path class="d" d="M104.732,85.532l7.3,16.121H94.566Z" transform="translate(-65.547 -82.712)"/><path class="d" d="M127.6,85.532l10.321,16.121H120.3Z" transform="translate(-36.23 -82.712)"/><path class="d" d="M127.878,95.282h19.173L112.232,137.9h-.083Z" transform="translate(-45.518 -71.605)"/><path class="d" d="M113.739,95.282,129.468,137.9h-.081L94.566,95.282Z" transform="translate(-65.547 -71.605)"/><path class="d" d="M106.154,95.282h22.938l-11.468,30.779Z" transform="translate(-52.347 -71.605)"/><g class="e" transform="translate(0 16.311)"><path class="a" d="M124.125,133.8a6.681,6.681,0,0,0-9.434-1.367,6.916,6.916,0,0,0-1.348,9.575l8.023,10.86a3.455,3.455,0,0,1-.316,4.466l-2.7,2.736a3.314,3.314,0,0,1-4.969-.235L94.476,136.794V105.073a6.739,6.739,0,1,0-13.476,0v46.684a10.374,10.374,0,0,0,2.211,6.413l21.92,28.707a12.821,12.821,0,0,1,2.19,4.638,3.308,3.308,0,0,0,3.222,2.479h27.732a3.4,3.4,0,0,0,3.369-3.42V166.635a27.685,27.685,0,0,0-5.391-16.418Zm84.9-35.567a6.783,6.783,0,0,0-6.738,6.839v31.721l-18.91,23.043a3.346,3.346,0,0,1-4.969.235l-2.7-2.736a3.454,3.454,0,0,1-.314-4.466l8.022-10.86a6.917,6.917,0,0,0-1.348-9.575,6.681,6.681,0,0,0-9.434,1.367l-12.129,16.416a27.685,27.685,0,0,0-5.391,16.418v23.939a3.4,3.4,0,0,0,3.369,3.42h27.732a3.326,3.326,0,0,0,3.221-2.479,12.833,12.833,0,0,1,2.19-4.638l21.919-28.707a10.367,10.367,0,0,0,2.212-6.413V105.073A6.783,6.783,0,0,0,209.026,98.234Z" transform="translate(-81 -84.554)"/></g></g></g></svg>