<svg xmlns="http://www.w3.org/2000/svg" width="20.25" height="19.885" viewBox="0 0 20.25 19.885"><defs><style>.a{fill:none;stroke:#2b1097;stroke-linecap:round;stroke-linejoin:round;}</style></defs><g transform="translate(-12.875 -13.458)"><path class="a" d="M13.522,20.455l8.927,12.1a.7.7,0,0,0,.244.209.667.667,0,0,0,.615,0,.7.7,0,0,0,.244-.209l8.927-12.1a.769.769,0,0,0,.041-.842L29.491,14.5a.712.712,0,0,0-.253-.254.674.674,0,0,0-.339-.093H17.1a.674.674,0,0,0-.339.093.712.712,0,0,0-.253.254l-3.028,5.11a.769.769,0,0,0,.041.842Z"/><path class="a" d="M14.063,19.906H31.938"/><path class="a" d="M29.188,14.875l-2.062,5.031L23,14.156"/><path class="a" d="M16.813,14.875l2.063,5.031L23,14.156"/><path class="a" d="M23,32.125,18.875,19.906"/><path class="a" d="M23,32.125l4.125-12.219"/></g></svg>